<?xml version="1.0" standalone="no"?><!DOCTYPE svg PUBLIC "-//W3C//DTD SVG 1.1//EN" "http://www.w3.org/Graphics/SVG/1.1/DTD/svg11.dtd"><svg t="1568022282425" class="icon" viewBox="0 0 1280 1024" version="1.1" xmlns="http://www.w3.org/2000/svg" p-id="1412" xmlns:xlink="http://www.w3.org/1999/xlink" width="250" height="200"><defs><style type="text/css"></style></defs><path d="M292.571429 0m91.428571 0l548.571429 0q91.428571 0 91.428571 91.428571l0 0q0 91.428571-91.428571 91.428572l-548.571429 0q-91.428571 0-91.428571-91.428572l0 0q0-91.428571 91.428571-91.428571Z" fill="#8DB7F2" p-id="1413"></path><path d="M548.571429 438.857143m91.428571 0l548.571429 0q91.428571 0 91.428571 91.428571l0 0q0 91.428571-91.428571 91.428572l-548.571429 0q-91.428571 0-91.428571-91.428572l0 0q0-91.428571 91.428571-91.428571Z" fill="#8DB7F2" p-id="1414"></path><path d="M0 841.142857m91.428571 0l548.571429 0q91.428571 0 91.428571 91.428572l0 0q0 91.428571-91.428571 91.428571l-548.571429 0q-91.428571 0-91.428571-91.428571l0 0q0-91.428571 91.428571-91.428572Z" fill="#8DB7F2" p-id="1415"></path></svg>